<?xml version="1.0" encoding="UTF-8" standalone="no"?>
<svg version="1.1" viewBox="0 0 179.28802 179.28802" id="svg9566" sodipodi:docname="Framework_logo_icon.svg" inkscape:version="1.1.1 (3bf5ae0, 2021-09-20)" xmlns:inkscape="http://www.inkscape.org/namespaces/inkscape" xmlns:sodipodi="http://sodipodi.sourceforge.net/DTD/sodipodi-0.dtd" xmlns="http://www.w3.org/2000/svg" xmlns:svg="http://www.w3.org/2000/svg">
  <defs id="defs9570" />
  <sodipodi:namedview id="namedview9568" pagecolor="#505050" bordercolor="#eeeeee" borderopacity="1" inkscape:pageshadow="0" inkscape:pageopacity="0" inkscape:pagecheckerboard="0" inkscape:document-units="mm" showgrid="false" inkscape:zoom="0.47126122" inkscape:cx="467.89337" inkscape:cy="182.48902" inkscape:window-width="1366" inkscape:window-height="703" inkscape:window-x="0" inkscape:window-y="0" inkscape:window-maximized="1" inkscape:current-layer="svg9566" />
  <path d="M 179.28799,89.643997 A 89.643997,89.643997 0 0 1 89.643997,179.28799 89.643997,89.643997 0 0 1 0,89.643997 89.643997,89.643997 0 0 1 89.643997,0 89.643997,89.643997 0 0 1 179.28799,89.643997 Z" fill="#2e3440" id="path9562" style="stroke:none" />
  <path d="m149.23948 74.326643-9.47143-5.510082c-4.43432-2.588684-7.17524-7.361141-7.17524-12.524114v-11.020072c0-2.25608-1.01885-4.381973-2.75544-5.799266-5.16612-4.208441-10.97816-7.621502-17.26356-10.065587-2.09539-0.809825-4.43432-0.650781-6.37168 0.477281l-9.485524 5.52448c-4.434327 2.58873-9.902055 2.58873-14.35049 0l-9.485956-5.52448c-1.937356-1.128062-4.290798-1.301564-6.371561-0.477281-6.299853 2.444085-12.09747 5.857146-17.249317 10.051143-1.736396 1.417232-2.755273 3.543171-2.755273 5.79925v11.020073c0 5.162941-2.726593 9.935446-7.175283 12.524131l-9.471308 5.509866c-1.937341 1.128064-3.257576 3.080716-3.601989 5.307614-0.530903 3.282974-0.789299 6.638385-0.789299 10.051178 0 3.413202 0.258238 6.768192 0.774874 10.036522 0.344476 2.227301 1.664662 4.194151 3.601989 5.322251l9.471323 5.50989c4.434327 2.58868 7.175285 7.36114 7.175285 12.52427v11.02016c0 2.25581 1.018845 4.38177 2.755256 5.79922 5.151861 4.19375 10.963824 7.60695 17.249339 10.05117 2.095103 0.80982 4.43445 0.65079 6.371793-0.47727l9.48554-5.52453c4.434327-2.58871 9.901638-2.58871 14.35049 0l9.485531 5.52453c1.93735 1.12806 4.29079 1.28725 6.37169 0.47727 6.28581-2.44422 12.09741-5.85742 17.24944-10.05117 1.73656-1.41739 2.75545-3.54341 2.75545-5.79922v-11.02016c0-5.16313 2.7409-9.93559 7.17523-12.52427l9.47102-5.50989c1.93734-1.12806 3.25781-3.0803 3.60214-5.322251 0.50237-3.26833 0.77487-6.62332 0.77487-10.036522 0-3.412793-0.25839-6.768204-0.77487-10.036532-0.33021-2.2273-1.63616-4.179507-3.5731-5.307602zm-59.698132 54.146027c-21.253154 0-38.488269-17.36919-38.488269-38.787247 0-21.41842 17.235115-38.787314 38.488269-38.787314 21.252762 0 38.487702 17.368894 38.487702 38.787314 0 21.418057-17.23494 38.787247-38.487702 38.787247z" fill="#fff" id="path9564" style="stroke:none" />
</svg>
